IKResults																																											
version=1																																											
nRows=8																																											
nColumns=44																																											
inDegrees=yes																																											
																																											
Units are S.I. units (second, meters, Newtons, ...)																																											
Angles are in degrees.																																											
																																											
endheader																																											
time	ground_spine_rot_x	ground_spine_rot_y	ground_spine_rot_z	ground_spine_tx	ground_spine_ty	ground_spine_tz	clav_prot	clav_elev	scapula_abduction	scapula_elevation	scapula_upward_rot	scapula_winging	plane_elv	shoulder_elv	axial_rot	elbow_flexion	pro_sup	clav_prot_l	clav_elev_l	pitch2	roll2	yaw2	aux7jnt_r3	aux7jnt_r1	aux7jnt_r2	aux6jnt_r3	aux6jnt_r1	aux6jnt_r2	aux5jnt_r3	aux5jnt_r1	aux5jnt_r2	aux4jnt_r3	aux4jnt_r1	aux4jnt_r2	aux3jnt_r3	aux3jnt_r1	aux3jnt_r2	pitch1	roll1	yaw1	aux1jnt_r3	aux1jnt_r1	aux1jnt_r2
2	-0.32200279	0.01854425	-2.0224329	-0.33749626	1.09568815	-0.19775607	-46.1899735	11.36960975	-5.82427995	-12.00557279	44.60473147	19.3256943	-20.20741562	75.54382802	-4.54363937	0	34.32	30.42326055	-1.1607173	0.031319	0.08655594	-0.01812648	0.3355618	0.67942215	-0.19525126	0.39477762	0.77860909	-0.22744681	0.39477762	1.07120587	-0.22744681	0.29608321	1.07120587	-0.22744681	0.19738881	0.97202177	-0.09762563	-0.16882528	-0.04101839	-0.00106162	-5.37817204	-1.17509024	-0.00675175
2.01	-0.31263323	-0.02467488	-2.07471353	-0.33776851	1.09558108	-0.19769988	-46.53092053	11.30878261	-4.49122563	-12.14744245	45.96781333	19.2815787	-21.90956595	75.13321779	-4.85341998	0	34.32	30.42326055	-1.1607173	0.03633761	0.07971556	-0.01869488	0.38933284	0.62572848	-0.20137383	0.45803752	0.71707683	-0.23457895	0.45803752	0.98655015	-0.23457895	0.34352814	0.98655015	-0.23457895	0.22901876	0.89520441	-0.10068691	-0.17492905	-0.03417224	0.00038621	-5.57261628	-0.97896269	0.00245627
2.02	-0.31143229	0.00364704	-2.09868763	-0.33792492	1.09552855	-0.19776683	-46.53819509	11.2856776	-4.45674891	-12.16846418	45.99831645	19.2863384	-21.97228023	75.10921644	-4.66441221	0	34.32	30.42326055	-1.1607173	0.03614799	0.07890206	-0.01868623	0.38730113	0.61934287	-0.20128066	0.45564727	0.709759	-0.23447042	0.45564727	0.97648232	-0.23447042	0.34173546	0.97648232	-0.23447042	0.22782364	0.88606878	-0.10064033	-0.17496478	-0.03391275	-0.00045022	-5.57375468	-0.97152879	-0.00286332
2.03	-0.35453477	0.01831424	-2.11128855	-0.33804541	1.09548445	-0.19753882	-46.21131207	11.36383009	-5.33139534	-12.03239804	44.93518097	19.30526628	-20.78805959	75.43542206	-4.50433805	0	34.32	30.42326055	-1.1607173	0.03331609	0.08323574	-0.01894394	0.35695926	0.65336019	-0.20405662	0.41995105	0.74874241	-0.23770412	0.41995105	1.03011547	-0.23770412	0.31496328	1.03011547	-0.23770412	0.20997552	0.93473598	-0.10202831	-0.17216656	-0.0386773	-0.00192834	-5.48461315	-1.1080231	-0.01226394
2.04	-0.33359141	0.01846046	-2.15255379	-0.33828684	1.09541684	-0.19761727	-46.51893188	11.28998854	-4.61941744	-12.15774315	45.86987888	19.29089	-21.7281569	74.95259786	-4.7077317	0	34.32	30.42326055	-1.1607173	0.03636905	0.07817099	-0.01908813	0.38966961	0.61360433	-0.20560985	0.45843371	0.70318271	-0.23951346	0.45843371	0.9674347	-0.23951346	0.34382529	0.9674347	-0.23951346	0.22921686	0.87785889	-0.10280493	-0.1760098	-0.03318564	-0.00108097	-5.60704526	-0.95069853	-0.00687481
2.05	-0.34388149	0.07425713	-2.16956724	-0.33837328	1.09540303	-0.19764299	-46.36731913	11.32397395	-5.40624131	-12.08417546	45.14961705	19.31429702	-20.67538462	75.0982461	-4.60826357	0	34.32	30.42326055	-1.1607173	0.03635067	0.0812137	-0.02012682	0.38947277	0.63748813	-0.21679817	0.45820213	0.73055324	-0.25254665	0.45820213	1.00509091	-0.25254665	0.3436516	1.00509091	-0.25254665	0.22910107	0.91202846	-0.10839908	-0.17623094	-0.03699769	-0.00156593	-5.61408984	-1.05990571	-0.00995909
2.06	-0.32147531	0.08625589	-2.20398549	-0.33860179	1.0953774	-0.19778357	-46.4484906	11.31399636	-5.41178013	-12.10338738	45.28269899	19.31458859	-20.65561596	74.8873207	-4.82047941	0	34.32	30.42326055	-1.1607173	0.03738495	0.07735786	-0.01980813	0.40055435	0.60722168	-0.21336535	0.47123926	0.69586827	-0.24854778	0.47123926	0.95737153	-0.24854778	0.35342944	0.95737153	-0.24854778	0.23561963	0.86872748	-0.10668267	-0.17821237	-0.03249716	-0.00140444	-5.67721123	-0.93097519	-0.00893201
2.07	-0.29383852	0.0761885	-2.17611908	-0.33853798	1.09542832	-0.1979653	-46.3259681	11.36492815	-5.20384707	-12.05176019	45.20483459	19.2968721	-20.73631567	75.07733214	-4.76718082	0	34.32	30.42326055	-1.1607173	0.02234822	0.06911704	-0.01740695	0.23944597	0.54253526	-0.18750078	0.28170045	0.62173846	-0.21841834	0.28170045	0.85538417	-0.21841834	0.21127534	0.85538417	-0.21841834	0.14085023	0.77618324	-0.09375039	-0.15992058	-0.01980396	-0.00055098	-5.09450008	-0.56734171	-0.00350413
